<svg width="261" height="171" viewBox="0 0 261 171" fill="none" xmlns="http://www.w3.org/2000/svg">
<path d="M164.437 67.4575C169.905 62.5842 173.001 56.0885 173.001 49.3477C173.001 42.1839 169.647 35.4842 163.558 30.4815C157.631 25.6142 149.786 22.9333 141.467 22.9333C133.148 22.9333 125.303 25.6142 119.377 30.4818C113.287 35.4842 109.933 42.1839 109.933 49.3477C109.933 56.5115 113.287 63.2113 119.377 68.214C125.303 73.0816 133.148 75.7623 141.467 75.7623C142.575 75.7623 143.69 75.7133 144.796 75.6161L146.686 77.2538C153.195 82.8945 161.52 85.9997 170.133 86H173V79.8981L172.16 79.0587C168.848 75.7369 166.224 71.7947 164.437 67.4575ZM150.441 72.9208L146.65 69.6348L145.385 69.7897C144.085 69.9487 142.777 70.0285 141.467 70.0286C127.241 70.0286 115.667 60.7511 115.667 49.3477C115.667 37.9443 127.241 28.6667 141.467 28.6667C155.693 28.6667 167.267 37.9441 167.267 49.3477C167.267 55.0291 164.432 60.3331 159.286 64.2827L157.634 65.5496L158.396 67.7058C159.958 72.1097 162.252 76.2178 165.183 79.8564C159.725 78.9452 154.623 76.5453 150.441 72.9208Z" fill="#020887"/>
<path d="M94.9165 54.0145C97.5999 50.6177 99.7068 46.803 101.153 42.7228L101.909 40.5773L100.259 39.3113C95.4061 35.5872 92.7333 30.5888 92.7333 25.2369C92.7333 14.4826 103.664 5.73333 117.1 5.73333C126.984 5.73333 135.512 10.4687 139.33 17.2538C140.039 17.2194 140.751 17.2 141.467 17.2C142.903 17.2 144.327 17.2697 145.737 17.4091C144.261 13.5866 141.699 10.0971 138.176 7.20358C132.521 2.55832 125.037 0 117.1 0C109.163 0 101.679 2.55832 96.0235 7.20358C90.2046 11.9836 87 18.3879 87 25.2369C87 31.651 89.9297 37.8314 95.1073 42.4804C93.4176 46.5466 90.9488 50.2429 87.8398 53.361L87 54.2006V60.2H89.8667C95.1677 60.1993 100.396 58.9649 105.137 56.5943C104.617 54.6237 104.313 52.6025 104.229 50.5662C101.351 52.2529 98.1987 53.4201 94.9165 54.0145Z" fill="#020887"/>
<path d="M29.4488 137L23.4728 126.74H19.5128V137H16.2368V111.908H24.3368C26.2328 111.908 27.8288 112.232 29.1248 112.88C30.4448 113.528 31.4288 114.404 32.0768 115.508C32.7248 116.612 33.0488 117.872 33.0488 119.288C33.0488 121.016 32.5448 122.54 31.5368 123.86C30.5528 125.18 29.0648 126.056 27.0728 126.488L33.3728 137H29.4488ZM19.5128 124.112H24.3368C26.1128 124.112 27.4448 123.68 28.3328 122.816C29.2208 121.928 29.6648 120.752 29.6648 119.288C29.6648 117.8 29.2208 116.648 28.3328 115.832C27.4688 115.016 26.1368 114.608 24.3368 114.608H19.5128V124.112ZM56.1392 126.38C56.1392 127.004 56.1032 127.664 56.0312 128.36H40.2632C40.3832 130.304 41.0432 131.828 42.2432 132.932C43.4672 134.012 44.9432 134.552 46.6712 134.552C48.0872 134.552 49.2632 134.228 50.1992 133.58C51.1592 132.908 51.8312 132.02 52.2152 130.916H55.7432C55.2152 132.812 54.1592 134.36 52.5752 135.56C50.9912 136.736 49.0232 137.324 46.6712 137.324C44.7992 137.324 43.1192 136.904 41.6312 136.064C40.1672 135.224 39.0152 134.036 38.1752 132.5C37.3352 130.94 36.9152 129.14 36.9152 127.1C36.9152 125.06 37.3232 123.272 38.1392 121.736C38.9552 120.2 40.0952 119.024 41.5592 118.208C43.0472 117.368 44.7512 116.948 46.6712 116.948C48.5432 116.948 50.1992 117.356 51.6392 118.172C53.0792 118.988 54.1832 120.116 54.9512 121.556C55.7432 122.972 56.1392 124.58 56.1392 126.38ZM52.7552 125.696C52.7552 124.448 52.4792 123.38 51.9272 122.492C51.3752 121.58 50.6192 120.896 49.6592 120.44C48.7232 119.96 47.6792 119.72 46.5272 119.72C44.8712 119.72 43.4552 120.248 42.2792 121.304C41.1272 122.36 40.4672 123.824 40.2992 125.696H52.7552ZM59.2394 127.1C59.2394 125.06 59.6474 123.284 60.4634 121.772C61.2794 120.236 62.4074 119.048 63.8474 118.208C65.3114 117.368 66.9794 116.948 68.8514 116.948C71.2754 116.948 73.2674 117.536 74.8274 118.712C76.4114 119.888 77.4554 121.52 77.9594 123.608H74.4314C74.0954 122.408 73.4354 121.46 72.4514 120.764C71.4914 120.068 70.2914 119.72 68.8514 119.72C66.9794 119.72 65.4674 120.368 64.3154 121.664C63.1634 122.936 62.5874 124.748 62.5874 127.1C62.5874 129.476 63.1634 131.312 64.3154 132.608C65.4674 133.904 66.9794 134.552 68.8514 134.552C70.2914 134.552 71.4914 134.216 72.4514 133.544C73.4114 132.872 74.0714 131.912 74.4314 130.664H77.9594C77.4314 132.68 76.3754 134.3 74.7914 135.524C73.2074 136.724 71.2274 137.324 68.8514 137.324C66.9794 137.324 65.3114 136.904 63.8474 136.064C62.4074 135.224 61.2794 134.036 60.4634 132.5C59.6474 130.964 59.2394 129.164 59.2394 127.1ZM85.6066 110.36V137H82.3306V110.36H85.6066ZM89.966 127.064C89.966 125.048 90.374 123.284 91.19 121.772C92.006 120.236 93.122 119.048 94.538 118.208C95.978 117.368 97.574 116.948 99.326 116.948C101.054 116.948 102.554 117.32 103.826 118.064C105.098 118.808 106.046 119.744 106.67 120.872V117.272H109.982V137H106.67V133.328C106.022 134.48 105.05 135.44 103.754 136.208C102.482 136.952 100.994 137.324 99.29 137.324C97.538 137.324 95.954 136.892 94.538 136.028C93.122 135.164 92.006 133.952 91.19 132.392C90.374 130.832 89.966 129.056 89.966 127.064ZM106.67 127.1C106.67 125.612 106.37 124.316 105.77 123.212C105.17 122.108 104.354 121.268 103.322 120.692C102.314 120.092 101.198 119.792 99.974 119.792C98.75 119.792 97.634 120.08 96.626 120.656C95.618 121.232 94.814 122.072 94.214 123.176C93.614 124.28 93.314 125.576 93.314 127.064C93.314 128.576 93.614 129.896 94.214 131.024C94.814 132.128 95.618 132.98 96.626 133.58C97.634 134.156 98.75 134.444 99.974 134.444C101.198 134.444 102.314 134.156 103.322 133.58C104.354 132.98 105.17 132.128 105.77 131.024C106.37 129.896 106.67 128.588 106.67 127.1ZM139.242 116.912C140.778 116.912 142.146 117.236 143.346 117.884C144.546 118.508 145.494 119.456 146.19 120.728C146.886 122 147.234 123.548 147.234 125.372V137H143.994V125.84C143.994 123.872 143.502 122.372 142.518 121.34C141.558 120.284 140.25 119.756 138.594 119.756C136.89 119.756 135.534 120.308 134.526 121.412C133.518 122.492 133.014 124.064 133.014 126.128V137H129.774V125.84C129.774 123.872 129.282 122.372 128.298 121.34C127.338 120.284 126.03 119.756 124.374 119.756C122.67 119.756 121.314 120.308 120.306 121.412C119.298 122.492 118.794 124.064 118.794 126.128V137H115.518V117.272H118.794V120.116C119.442 119.084 120.306 118.292 121.386 117.74C122.49 117.188 123.702 116.912 125.022 116.912C126.678 116.912 128.142 117.284 129.414 118.028C130.686 118.772 131.634 119.864 132.258 121.304C132.81 119.912 133.722 118.832 134.994 118.064C136.266 117.296 137.682 116.912 139.242 116.912ZM151.384 127.064C151.384 125.048 151.792 123.284 152.608 121.772C153.424 120.236 154.54 119.048 155.956 118.208C157.396 117.368 158.992 116.948 160.744 116.948C162.472 116.948 163.972 117.32 165.244 118.064C166.516 118.808 167.464 119.744 168.088 120.872V117.272H171.4V137H168.088V133.328C167.44 134.48 166.468 135.44 165.172 136.208C163.9 136.952 162.412 137.324 160.708 137.324C158.956 137.324 157.372 136.892 155.956 136.028C154.54 135.164 153.424 133.952 152.608 132.392C151.792 130.832 151.384 129.056 151.384 127.064ZM168.088 127.1C168.088 125.612 167.788 124.316 167.188 123.212C166.588 122.108 165.772 121.268 164.74 120.692C163.732 120.092 162.616 119.792 161.392 119.792C160.168 119.792 159.052 120.08 158.044 120.656C157.036 121.232 156.232 122.072 155.632 123.176C155.032 124.28 154.732 125.576 154.732 127.064C154.732 128.576 155.032 129.896 155.632 131.024C156.232 132.128 157.036 132.98 158.044 133.58C159.052 134.156 160.168 134.444 161.392 134.444C162.616 134.444 163.732 134.156 164.74 133.58C165.772 132.98 166.588 132.128 167.188 131.024C167.788 129.896 168.088 128.588 168.088 127.1ZM182.444 111.728V126.848C182.444 128.36 182.816 129.524 183.56 130.34C184.304 131.156 185.396 131.564 186.836 131.564C188.276 131.564 189.38 131.156 190.148 130.34C190.916 129.524 191.3 128.36 191.3 126.848V111.728H197.456V126.812C197.456 129.068 196.976 130.976 196.016 132.536C195.056 134.096 193.76 135.272 192.128 136.064C190.52 136.856 188.72 137.252 186.728 137.252C184.736 137.252 182.948 136.868 181.364 136.1C179.804 135.308 178.568 134.132 177.656 132.572C176.744 130.988 176.288 129.068 176.288 126.812V111.728H182.444ZM214.019 116.696C216.371 116.696 218.243 117.464 219.635 119C221.051 120.512 221.759 122.6 221.759 125.264V137H215.639V126.092C215.639 124.748 215.291 123.704 214.595 122.96C213.899 122.216 212.963 121.844 211.787 121.844C210.611 121.844 209.675 122.216 208.979 122.96C208.283 123.704 207.935 124.748 207.935 126.092V137H201.779V116.912H207.935V119.576C208.559 118.688 209.399 117.992 210.455 117.488C211.511 116.96 212.699 116.696 214.019 116.696ZM241.337 124.04C242.801 124.352 243.977 125.084 244.865 126.236C245.753 127.364 246.197 128.66 246.197 130.124C246.197 132.236 245.453 133.916 243.965 135.164C242.501 136.388 240.449 137 237.809 137H226.037V111.728H237.413C239.981 111.728 241.985 112.316 243.425 113.492C244.889 114.668 245.621 116.264 245.621 118.28C245.621 119.768 245.225 121.004 244.433 121.988C243.665 122.972 242.633 123.656 241.337 124.04ZM232.193 121.952H236.225C237.233 121.952 238.001 121.736 238.529 121.304C239.081 120.848 239.357 120.188 239.357 119.324C239.357 118.46 239.081 117.8 238.529 117.344C238.001 116.888 237.233 116.66 236.225 116.66H232.193V121.952ZM236.729 132.032C237.761 132.032 238.553 131.804 239.105 131.348C239.681 130.868 239.969 130.184 239.969 129.296C239.969 128.408 239.669 127.712 239.069 127.208C238.493 126.704 237.689 126.452 236.657 126.452H232.193V132.032H236.729Z" fill="#020887"/>
</svg>
